<svg xmlns="http://www.w3.org/2000/svg" version="1.1" xmlns:xlink="http://www.w3.org/1999/xlink" xmlns:svgjs="http://svgjs.com/svgjs" width="1000" height="1000"><rect width="1000" height="1000" rx="400" ry="400" fill="#eebaba"></rect><g transform="matrix(11.488970588235295,0,0,11.488970588235295,283.2705550032223,199.9996975271103)"><svg xmlns="http://www.w3.org/2000/svg" version="1.1" xmlns:xlink="http://www.w3.org/1999/xlink" xmlns:svgjs="http://svgjs.com/svgjs" width="37.728" height="52.224"><svg width="37.728" height="52.224" viewBox="0 0 37.728 52.224" xmlns="http://www.w3.org/2000/svg"><g id="svgGroup" stroke-linecap="round" fill-rule="evenodd" font-size="9pt" stroke="#000" stroke-width="0.25mm" fill="black" style="stroke:#000;stroke-width:0.25mm;fill:black"><path d="M 0 47.04 L 3.648 39.84 A 16.706 16.706 0 0 0 6.866 42.051 A 22.389 22.389 0 0 0 9.936 43.392 A 23.799 23.799 0 0 0 17.109 44.72 A 27.232 27.232 0 0 0 18.048 44.736 A 26.028 26.028 0 0 0 21.007 44.58 Q 24.066 44.228 25.953 43.089 A 7.429 7.429 0 0 0 26.16 42.96 A 7.151 7.151 0 0 0 27.632 41.719 A 4.85 4.85 0 0 0 28.896 38.4 A 6.923 6.923 0 0 0 28.527 36.127 A 6.524 6.524 0 0 0 28.368 35.712 A 5.162 5.162 0 0 0 27.683 34.563 Q 27.188 33.924 26.448 33.312 A 12.087 12.087 0 0 0 25.262 32.455 Q 24.605 32.034 23.81 31.62 A 26.325 26.325 0 0 0 22.656 31.056 Q 20.256 29.952 16.416 28.608 A 45.222 45.222 0 0 1 12.332 27.019 Q 10.314 26.111 8.714 25.098 A 18.121 18.121 0 0 1 5.856 22.896 A 10.893 10.893 0 0 1 2.755 17.219 A 16.264 16.264 0 0 1 2.4 13.728 Q 2.4 10.848 3.696 8.352 A 12.712 12.712 0 0 1 6.563 4.708 A 15.159 15.159 0 0 1 7.44 3.984 A 16.637 16.637 0 0 1 10.719 2.049 A 21.758 21.758 0 0 1 13.392 1.056 A 23.964 23.964 0 0 1 17.368 0.236 A 32.943 32.943 0 0 1 21.408 0 A 40.447 40.447 0 0 1 25.462 0.193 Q 27.921 0.441 30 1.008 A 37 37 0 0 1 34.135 2.391 A 30.252 30.252 0 0 1 36.672 3.552 L 34.272 10.656 Q 31.68 9.12 28.368 8.16 A 24.023 24.023 0 0 0 24.064 7.347 A 30.564 30.564 0 0 0 21.024 7.2 Q 17.822 7.2 15.607 8.03 A 8.169 8.169 0 0 0 13.44 9.216 Q 10.848 11.232 10.848 13.632 A 5.345 5.345 0 0 0 11.034 15.06 A 4.732 4.732 0 0 0 11.28 15.744 Q 11.639 16.542 12.496 17.274 A 7.442 7.442 0 0 0 12.864 17.568 Q 14.016 18.432 15.936 19.296 Q 17.256 19.89 19.03 20.53 A 74.702 74.702 0 0 0 20.736 21.12 Q 25.44 22.752 28.704 24.432 Q 31.968 26.112 33.984 28.128 A 13.283 13.283 0 0 1 35.844 30.434 A 10.939 10.939 0 0 1 36.864 32.496 A 14.028 14.028 0 0 1 37.626 35.811 A 17.525 17.525 0 0 1 37.728 37.728 A 13.47 13.47 0 0 1 37.22 41.481 A 11.746 11.746 0 0 1 36.288 43.776 Q 34.848 46.464 32.256 48.336 A 17.235 17.235 0 0 1 28.89 50.212 A 22.823 22.823 0 0 1 25.968 51.216 A 28.211 28.211 0 0 1 21.291 52.058 A 36.233 36.233 0 0 1 17.76 52.224 A 39.459 39.459 0 0 1 12.473 51.886 A 29.294 29.294 0 0 1 7.488 50.784 Q 2.976 49.344 0 47.04 Z" vector-effect="non-scaling-stroke"></path></g></svg></svg></g></svg>