<svg width="167.904" height="72.193" viewBox="0 0 167.904 72.193" xmlns="http://www.w3.org/2000/svg"><g id="svgGroup" stroke-linecap="round" fill-rule="evenodd" font-size="9pt" stroke="#000" stroke-width="0.25mm" fill="black" style="stroke:#000;stroke-width:0.25mm;fill:black"><path d="M 0 67.008 L 3.648 59.808 A 16.706 16.706 0 0 0 6.866 62.019 A 22.389 22.389 0 0 0 9.936 63.36 A 23.799 23.799 0 0 0 17.109 64.688 A 27.232 27.232 0 0 0 18.048 64.704 A 26.028 26.028 0 0 0 21.007 64.547 Q 24.066 64.196 25.953 63.057 A 7.429 7.429 0 0 0 26.16 62.928 A 7.151 7.151 0 0 0 27.632 61.687 A 4.85 4.85 0 0 0 28.896 58.368 A 6.923 6.923 0 0 0 28.527 56.095 A 6.524 6.524 0 0 0 28.368 55.68 A 5.162 5.162 0 0 0 27.683 54.531 Q 27.188 53.892 26.448 53.28 A 12.087 12.087 0 0 0 25.262 52.423 Q 24.605 52.002 23.81 51.588 A 26.325 26.325 0 0 0 22.656 51.024 Q 20.256 49.92 16.416 48.576 A 45.222 45.222 0 0 1 12.332 46.987 Q 10.314 46.078 8.714 45.065 A 18.121 18.121 0 0 1 5.856 42.864 A 10.893 10.893 0 0 1 2.755 37.186 A 16.264 16.264 0 0 1 2.4 33.696 Q 2.4 30.816 3.696 28.32 A 12.712 12.712 0 0 1 6.563 24.676 A 15.159 15.159 0 0 1 7.44 23.952 A 16.637 16.637 0 0 1 10.719 22.017 A 21.758 21.758 0 0 1 13.392 21.024 A 23.964 23.964 0 0 1 17.368 20.204 A 32.943 32.943 0 0 1 21.408 19.968 A 40.447 40.447 0 0 1 25.462 20.161 Q 27.921 20.409 30 20.976 A 37 37 0 0 1 34.135 22.359 A 30.252 30.252 0 0 1 36.672 23.52 L 34.272 30.624 Q 31.68 29.088 28.368 28.128 A 24.023 24.023 0 0 0 24.064 27.314 A 30.564 30.564 0 0 0 21.024 27.168 Q 17.822 27.168 15.607 27.998 A 8.169 8.169 0 0 0 13.44 29.184 Q 10.848 31.2 10.848 33.6 A 5.345 5.345 0 0 0 11.034 35.028 A 4.732 4.732 0 0 0 11.28 35.712 Q 11.639 36.51 12.496 37.242 A 7.442 7.442 0 0 0 12.864 37.536 Q 14.016 38.4 15.936 39.264 Q 17.256 39.858 19.03 40.497 A 74.702 74.702 0 0 0 20.736 41.088 Q 25.44 42.72 28.704 44.4 Q 31.968 46.08 33.984 48.096 A 13.283 13.283 0 0 1 35.844 50.401 A 10.939 10.939 0 0 1 36.864 52.464 A 14.028 14.028 0 0 1 37.626 55.778 A 17.525 17.525 0 0 1 37.728 57.696 A 13.47 13.47 0 0 1 37.22 61.449 A 11.746 11.746 0 0 1 36.288 63.744 Q 34.848 66.432 32.256 68.304 A 17.235 17.235 0 0 1 28.89 70.18 A 22.823 22.823 0 0 1 25.968 71.184 A 28.211 28.211 0 0 1 21.291 72.026 A 36.233 36.233 0 0 1 17.76 72.192 A 39.459 39.459 0 0 1 12.473 71.854 A 29.294 29.294 0 0 1 7.488 70.752 Q 2.976 69.312 0 67.008 Z M 51.36 22.944 L 53.184 7.2 L 59.808 7.2 L 59.808 22.944 L 73.632 22.944 L 73.632 30.432 L 59.808 30.432 L 59.808 54.528 A 20.808 20.808 0 0 0 59.896 56.495 Q 60.042 58.032 60.432 59.232 A 10.524 10.524 0 0 0 61.01 60.665 Q 61.485 61.62 62.112 62.304 Q 63.168 63.456 64.656 63.984 Q 66.144 64.512 67.776 64.512 Q 70.176 64.512 72.288 63.744 Q 74.4 62.976 76.32 61.92 L 78.72 68.832 Q 76.8 69.984 73.536 71.088 Q 70.272 72.192 66.72 72.192 A 17.762 17.762 0 0 1 61.745 71.53 A 13.393 13.393 0 0 1 55.344 67.488 Q 51.914 63.624 51.301 56.91 A 33.636 33.636 0 0 1 51.168 53.856 L 51.168 30.432 L 42.528 30.432 L 42.528 22.944 L 51.36 22.944 Z M 151.008 0 L 151.008 54.528 Q 151.008 57.639 151.786 59.782 A 7.654 7.654 0 0 0 153.168 62.208 A 7.069 7.069 0 0 0 157.568 64.585 A 10.295 10.295 0 0 0 159.168 64.704 Q 160.992 64.704 162.72 64.272 Q 164.448 63.84 165.792 63.264 L 167.904 70.272 A 17.425 17.425 0 0 1 166.365 70.864 Q 165.601 71.12 164.724 71.35 A 33.579 33.579 0 0 1 163.632 71.616 A 22.864 22.864 0 0 1 160.603 72.082 A 29.293 29.293 0 0 1 158.016 72.192 A 20.562 20.562 0 0 1 154.07 71.826 A 17.336 17.336 0 0 1 151.824 71.232 Q 148.992 70.272 146.88 68.256 A 12.75 12.75 0 0 1 144.501 65.114 A 16.314 16.314 0 0 1 143.568 63.072 A 17.176 17.176 0 0 1 142.727 59.925 Q 142.458 58.376 142.39 56.601 A 31.915 31.915 0 0 1 142.368 55.392 L 142.368 0 L 151.008 0 Z M 81.6 46.08 Q 81.6 40.032 83.52 35.184 A 25.732 25.732 0 0 1 86.464 29.705 A 22.333 22.333 0 0 1 88.752 26.976 Q 92.064 23.616 96.624 21.792 A 25.902 25.902 0 0 1 105.318 19.99 A 29.908 29.908 0 0 1 106.464 19.968 Q 111.648 19.968 116.208 21.792 Q 120.768 23.616 124.128 26.976 Q 127.488 30.336 129.408 35.136 Q 131.328 39.936 131.328 45.888 A 32.711 32.711 0 0 1 130.736 52.235 A 26.702 26.702 0 0 1 129.456 56.688 A 25.115 25.115 0 0 1 125.996 62.938 A 22.872 22.872 0 0 1 124.224 64.992 Q 120.864 68.448 116.304 70.32 A 25.375 25.375 0 0 1 107.448 72.176 A 29.231 29.231 0 0 1 106.464 72.192 A 26.392 26.392 0 0 1 99.458 71.285 A 23.662 23.662 0 0 1 96.528 70.272 Q 91.968 68.352 88.656 64.896 Q 85.344 61.44 83.472 56.64 A 27.573 27.573 0 0 1 81.724 48.986 A 33.314 33.314 0 0 1 81.6 46.08 Z M 122.496 46.08 Q 122.496 42.336 121.296 38.976 A 18.781 18.781 0 0 0 119.016 34.507 A 17.006 17.006 0 0 0 117.936 33.12 Q 115.776 30.624 112.848 29.136 Q 109.92 27.648 106.464 27.648 A 18.479 18.479 0 0 0 101.447 28.293 A 13.475 13.475 0 0 0 94.656 32.64 Q 90.593 37.442 90.438 45.264 A 31.554 31.554 0 0 0 90.432 45.888 Q 90.432 49.632 91.632 53.04 A 19.326 19.326 0 0 0 93.853 57.493 A 17.425 17.425 0 0 0 94.992 58.992 Q 97.152 61.536 100.08 63.024 Q 103.008 64.512 106.464 64.512 A 17.942 17.942 0 0 0 110.225 64.133 A 14.578 14.578 0 0 0 113.184 63.168 Q 116.16 61.824 118.224 59.376 A 16.671 16.671 0 0 0 120.863 54.994 A 19.873 19.873 0 0 0 121.392 53.568 A 21.886 21.886 0 0 0 122.337 49.098 A 27.847 27.847 0 0 0 122.496 46.08 Z" vector-effect="non-scaling-stroke"/></g></svg>